<svg xmlns="http://www.w3.org/2000/svg" viewBox="0 0 61.34 23.95"><defs><style>.cls-1{fill:#fff;}</style></defs><path class="cls-1" d="M0,0C1.45.64,2.85,1.34,4.26,2S7,3.49,8.42,4.21c2.75,1.48,5.46,3,8.15,4.62s5.33,3.23,8,4.9,5.22,3.39,7.8,5.13H29.54c2.54-1.69,5.09-3.36,7.68-5S42.41,10.64,45,9.1s5.3-3.05,8-4.49c1.37-.7,2.71-1.43,4.1-2.11s2.76-1.36,4.18-2c-1.11,1.08-2.26,2.11-3.42,3.12s-2.34,2-3.51,3c-2.36,2-4.76,3.86-7.19,5.72S42.33,16,39.85,17.79s-5,3.51-7.53,5.22l-1.39.94L29.53,23q-3.86-2.62-7.66-5.33c-2.52-1.82-5-3.66-7.51-5.57S9.44,8.26,7,6.25c-1.19-1-2.39-2-3.57-3.06S1.13,1.1,0,0Z"/></svg>
