<svg xmlns="http://www.w3.org/2000/svg" viewBox="0 0 1745.72 887.99"><defs><style>.cls-1{fill:#fff;}</style></defs><title>whirlpool-logo-white</title><g id="Layer_2" data-name="Layer 2"><g id="Livello_2" data-name="Livello 2"><path class="cls-1" d="M456.06,160.72,369.38,477.51H319L257.74,247.4,195.56,477.51H145.18L58.5,160.72h49.92l61.72,230.1,62.18-230.1h49.47l62.63,230.1,61.73-230.1Z"/><path class="cls-1" d="M479.18,161.63l49.92-4.08v77.6l-.91,29H530c23.14-8.62,41.75-12.71,64.45-12.71,40.4,0,67.62,18.16,67.62,87.59V477.51H612.15V343.16c0-41.75-20.42-47.2-43.56-47.2-14.53,0-26.78,3.19-39.49,6.82V477.51H479.18Z"/><path class="cls-1" d="M730.59,164.81c25.87,0,30,15,30,31.77s-5.45,32.23-30,32.23-29.5-15.44-29.5-32.23S705.63,164.81,730.59,164.81Zm-25,89.86h49.92V477.51H705.63Z"/><path class="cls-1" d="M797.75,254.66h34l6.81,18.16h3.18c13.16-11.34,34-21.33,61.27-21.33a83.68,83.68,0,0,1,10.43.45v49c-9.07-1.35-18.6-2.72-28.14-2.72-13.62,0-24.51,3.17-37.67,9.07v170.2H797.75Z"/><path class="cls-1" d="M934.8,477.51V161.63l49.92-4.08v320Z"/><path class="cls-1" d="M1339.61,251.49c70.8,0,98,41.75,98,115.72,0,69.44-25.42,114.84-98.95,114.84s-99.39-45.4-99.39-114.84C1239.3,293.24,1268.8,251.49,1339.61,251.49Zm47.2,115.72c0-42.2-6.81-76.69-46.75-76.69-40.39,0-50.38,33.12-50.38,76.69,0,40.39,8.17,75.35,48.11,75.35S1386.81,409.43,1386.81,367.21Z"/><path class="cls-1" d="M1563.34,251.49c70.8,0,98,41.75,98,115.72,0,69.44-25.42,114.84-98.94,114.84S1463,436.65,1463,367.21C1463,293.24,1492.54,251.49,1563.34,251.49Zm47.21,115.72c0-42.2-6.82-76.69-46.75-76.69-40.39,0-50.38,33.12-50.38,76.69,0,40.39,8.17,75.35,48.1,75.35S1610.54,409.43,1610.54,367.21Z"/><path class="cls-1" d="M1694.47,477.51V161.63l49.92-4.08v320Z"/><path class="cls-1" d="M1351.7,11.87C1310.09-32.27,1154.55,51.6,995.84,182.6v17C1151.28,69.9,1297.57-6.45,1331.32,29.34c17.15,18.18,2,75.08-36.74,141.1-5.61,2.59-11.77,7.83-17.5,16.07-49.31,70.91-121.61,157-200.23,231.16C874.57,608.4,678.68,724.18,639,682.13c-22.61-24,14.46-101.48,82.1-193.5H702.38c-71.71,97.81-110.57,182.21-81.84,212.68,50,52.94,276.54-76.46,478.43-266.85C1190.48,348.23,1260,275,1302.82,210c12.36-18.76,12.88-32.05,7.69-38C1359,96.63,1376.42,38.08,1351.7,11.87Z"/><path class="cls-1" d="M1075,305.95a116.72,116.72,0,0,1,37.21-6.34c25.75,0,42.44,7.4,48.37,32.28,12.95-14.32,25.47-28.7,37.5-43-14-25.77-36.4-37.42-63.18-37.42-25,0-50.38,11.34-65.36,19.51h-2.26l-4.08-16.34h-37.67V464.54q23.74-21.06,47.77-43.59C1075,373.25,1075,350,1075,305.95Z"/><path class="cls-1" d="M1162.47,373.08c-3.45,50.54-22.77,64-50.68,64-5.62,0-10.64-.07-15.48-.18-23.37,22-47.05,43.08-70.75,63.2v83.58l49.92-5.45V476.14h1.37a236.78,236.78,0,0,0,43.56,4.54c58.09,0,93-38.58,93-116.65a217.2,217.2,0,0,0-3.39-40Q1187.83,347.81,1162.47,373.08Z"/><path class="cls-1" d="M400.52,102.27c2.25-2.06,3.89-4,4.29-7.11s-1.49-5.34-4.46-6.43c-5.49-2-12.49-.12-17.35,1.56-2.63.91-5.37,1.77-8.21,2.61-5.7,1.65-11.82,3.13-18.27,4.42s-13.18,2.41-20.12,3.33-14.1,1.62-21.3,2.13-14.51.83-21.75.95c-2.17,0-4.34,0-6.51,0q-9.7,0-19.19-.28c-9-.26-17.83-.72-26.33-1.35s-16.65-1.43-24.38-2.37-15-2.06-21.75-3.31-12.93-2.6-18.52-4.06c-5.22-1.37-9.89-2.81-14-4.34a17.61,17.61,0,0,0-6.49-1.27c-2,0-4.71.53-5.79,2.48s.16,4.26,1.49,5.71a14.42,14.42,0,0,0,5.4,3.56c1,.41,2,.8,3.06,1.2q6.94,2.64,15.07,4.95T192.91,109c6.22,1.32,12.75,2.5,19.55,3.55s14,2,21.27,2.72,15,1.37,22.64,1.79,15.61.72,23.49.81,16,0,24-.22,16-.66,23.86-1.25c5.78-.43,11.5-1,17.1-1.58,1.38-.14,2.77-.31,4.15-.47,0,2.9,3.72,4.65,6,5.37a22.79,22.79,0,0,0,8.7.93c12.27-.91,24.26-2.11,35.83-3.56,11.74-1.47,23-3.21,33.69-5.21s20.69-4.24,29.93-6.71a253.55,253.55,0,0,0,25.2-8A136.05,136.05,0,0,0,507.9,88a59,59,0,0,0,13.16-10A23.61,23.61,0,0,0,527.3,67.5a16.35,16.35,0,0,0-1-10.77,31.45,31.45,0,0,0-8.46-10.67A80.86,80.86,0,0,0,502,35.83a173.5,173.5,0,0,0-22.73-9.49c-8.7-3-18.45-5.81-29.17-8.4s-22.35-5-34.78-7S389.67,7,375.86,5.45s-28.21-2.75-43-3.65-30-1.47-45.3-1.68S256.74,0,241.34.47s-30.71,1.28-45.71,2.44S166,5.57,151.88,7.39s-27.66,4-40.45,6.43S86.67,19,75.63,22A299.63,299.63,0,0,0,45.7,31.78a154.87,154.87,0,0,0-23,11.06,66.92,66.92,0,0,0-15.3,12C3.62,59,1.27,63.21.4,67.5A19.83,19.83,0,0,0,2.16,80.36c2.05,4.29,5.61,8.55,10.61,12.72A100.81,100.81,0,0,0,32,105.24,217.57,217.57,0,0,0,59.5,116.43c10.48,3.55,22.18,6.86,35,9.91s26.75,5.82,41.57,8.26,30.58,4.58,47,6.35,33.41,3.16,51,4.18c2.53.16,5.07.29,7.62.43a14.08,14.08,0,0,0,6.73-1.13c2-.87,4-2.5,4.2-4.75s-1.71-4.08-3.63-5.07a16.33,16.33,0,0,0-6.63-1.63c-8.95-.56-17.8-1.25-26.47-2.06-11.15-1-22-2.3-32.48-3.74s-20.47-3.08-30-4.89-18.39-3.75-26.77-5.87c-6.86-1.74-13.34-3.57-19.37-5.51C90.78,105.67,77.61,99.74,68.38,93.4a51,51,0,0,1-9.78-8.46,24.66,24.66,0,0,1-5.06-8.65,16.41,16.41,0,0,1-.32-8.7,22.14,22.14,0,0,1,4.32-8.52,44.49,44.49,0,0,1,8.85-8.23,88.74,88.74,0,0,1,13-7.71,161.35,161.35,0,0,1,17-7.13q5.16-1.86,10.87-3.61c6.85-2.1,14.25-4.06,22.16-5.88,4.23-1,8.57-1.9,13.08-2.79,8.25-1.63,16.94-3.1,26-4.4s18.41-2.45,28-3.42,19.25-1.7,29.17-2.29,19.89-1,30-1.19,19.93-.23,29.9-.05,19.73.48,29.42,1,19,1.22,28.23,2.08,18,1.88,26.59,3.07,16.65,2.5,24.4,4a307.77,307.77,0,0,1,40.54,10.29c11.32,3.83,20.57,8.08,27.34,12.58,6.62,4.42,10.86,9.07,12.49,13.79s.69,9.28-2.72,13.82-9.07,8.78-17,12.8a159.68,159.68,0,0,1-29.36,10.77C417.85,98.69,409.48,100.59,400.52,102.27Z"/><path class="cls-1" d="M149.77,62.17a20.73,20.73,0,0,1-7.57,1.71c-2.18.06-5.67-.32-6.92-2.55s.74-5,2.3-6.5a23,23,0,0,1,6.35-4.19c32.72-15.27,77.51-20.51,112.89-20.51h3.89c12.92.09,25.81.68,38.13,1.73,11.87,1,23.21,2.49,33.52,4.35a207.4,207.4,0,0,1,26.55,6.43,82.37,82.37,0,0,1,17.94,7.85c4.34,2.71,7.23,5.58,8.53,8.5a8.49,8.49,0,0,1,.77,3.47,9,9,0,0,1-1.65,5c-1.8,2.66-5.08,5.26-9.77,7.68a89.91,89.91,0,0,1-17.06,6.36,194.83,194.83,0,0,1-22.31,4.66c-7.86,1.2-16.39,2.12-25.27,2.72-4.26.28-8.58.49-12.94.62-3.43.08-6.89.14-10.34.14h-2.38c-3.9,0-7.8-.12-11.64-.31s-7.44-.42-11-.74c-6.88-.61-13.45-1.48-19.42-2.59a114.15,114.15,0,0,1-14.93-3.73,42.74,42.74,0,0,1-9.71-4.4,10.72,10.72,0,0,1-4.37-4.61,4.56,4.56,0,0,1,.6-4.4,13.23,13.23,0,0,1,4.78-3.8,39.74,39.74,0,0,1,7.79-3A79.47,79.47,0,0,1,236,60c3.13-.48,6.5-.84,10-1.07,2.38-.14,4.83-.23,7.29-.23s4.89.08,7.28.23c3.52.23,6.89.59,10,1.07a80.51,80.51,0,0,1,9.53,2,40.31,40.31,0,0,1,7.8,3,13.17,13.17,0,0,1,4.76,3.8,4.46,4.46,0,0,1,.6,4.4,7.81,7.81,0,0,1-2,2.74c1.08-.06,2.14-.13,3.2-.23l1-.1c2.22-.21,4.43-.5,6.56-.86s4.25-.81,6.23-1.33a52.61,52.61,0,0,0,5.59-1.74,32.77,32.77,0,0,0,4.61-2.17A15.2,15.2,0,0,0,321.89,67a7.52,7.52,0,0,0,1.86-2.78,4.88,4.88,0,0,0,.09-3,7.65,7.65,0,0,0-1.8-3.06,17.37,17.37,0,0,0-3.78-3,38.93,38.93,0,0,0-5.77-2.89,72.89,72.89,0,0,0-7.71-2.61c-2.87-.83-6.05-1.57-9.5-2.23s-7.16-1.25-11.09-1.74-8.06-.86-12.36-1.13-8.74-.41-13.27-.44H257C222.93,44.12,181.69,48.93,149.77,62.17Z"/><rect class="cls-1" x="1067.77" y="795.24" width="16.7" height="89.47"/><polygon class="cls-1" points="1111.89 884.64 1111.89 795.23 1165.82 795.23 1165.82 809.11 1128.55 809.11 1128.55 831.74 1161.25 831.74 1161.25 844.97 1128.55 844.97 1128.55 884.64 1111.89 884.64"/><polygon class="cls-1" points="1188.48 884.64 1188.48 795.23 1242.4 795.23 1242.4 809.11 1205.13 809.11 1205.13 831.74 1237.82 831.74 1237.82 844.97 1205.13 844.97 1205.13 884.64 1188.48 884.64"/><path class="cls-1" d="M1005.14,886.08c-3.61,0-22.56-1-27.88-1.25V795.23c12-.63,25.24-1.26,28.16-1.26,26.54,0,39.45,15.06,39.45,46s-13,46.06-39.72,46.06m.38-79.53a46.65,46.65,0,0,0-9,1.29l-2.57.59v63.36l2.66.52a50.1,50.1,0,0,0,8.52,1.08c15.22,0,22-10.33,22-33.49s-6.67-33.35-21.63-33.35"/><polygon class="cls-1" points="1264.4 884.7 1264.4 795.3 1318.34 795.3 1318.34 809.15 1281.08 809.15 1281.08 831.79 1313.77 831.79 1313.77 845.02 1281.08 845.02 1281.08 870.83 1319.22 870.83 1319.22 884.7 1264.4 884.7"/><polygon class="cls-1" points="1426.1 884.7 1426.1 795.3 1480.02 795.3 1480.02 809.15 1442.75 809.15 1442.75 831.79 1475.45 831.79 1475.45 845.02 1442.75 845.02 1442.75 870.83 1480.9 870.83 1480.9 884.7 1426.1 884.7"/><polygon class="cls-1" points="1690.91 884.7 1690.91 795.3 1744.82 795.3 1744.82 809.15 1707.55 809.15 1707.55 831.79 1740.25 831.79 1740.25 845.02 1707.55 845.02 1707.55 870.83 1745.71 870.83 1745.71 884.7 1690.91 884.7"/><rect class="cls-1" x="400.36" y="795.29" width="16.68" height="89.41"/><path class="cls-1" d="M1388.33,884.71c-.49-1.46-1-3-1.49-4.57l-.19-.61c-3.81-11.92-8.13-25.42-16-28.15l-.5-.17h-10.89v33.5h-16.69V795.24h23.43c31.08,0,37.15,10.11,37.15,27.58,0,15.12-6.82,19.83-14.2,22.67l-7.17,2.77,6.88,3.47c6.13,3.09,10.53,13.28,14.79,23.14,1.39,3.21,2.7,6.24,4,9v.89Zm-29.12-45.15h7.22c12.66,0,19.08-5.36,19.08-15.93,0-12.4-7.2-14.89-18.81-14.89h-7.49Z"/><path class="cls-1" d="M1644.76,886c-30.28,0-43.79-14-43.79-45.4,0-30.56,16.46-46.71,47.61-46.71a56.43,56.43,0,0,1,17.06,2.57v14.12a87.51,87.51,0,0,0-17.44-2.15c-15.56,0-29.52,2.41-29.52,31.5s14.71,31.64,28.5,31.64c6.79,0,12.43-1.21,18.4-2.5l1.09-.24v14.46c-5,1-14,2.69-21.92,2.69"/><polygon class="cls-1" points="807.73 884.7 807.73 845.02 770.22 845.02 770.22 884.7 753.57 884.7 753.57 795.3 770.22 795.3 770.22 831.79 807.73 831.79 807.73 795.3 824.4 795.3 824.4 884.7 807.73 884.7"/><polygon class="cls-1" points="690.76 884.74 690.76 808.48 665.83 809.14 665.83 795.29 732.54 795.29 732.54 809.14 707.46 808.48 707.46 884.74 690.76 884.74"/><polygon class="cls-1" points="138.61 884.7 138.61 795.3 192.56 795.3 192.56 809.15 155.29 809.15 155.29 831.79 187.98 831.79 187.98 845.02 155.29 845.02 155.29 870.83 193.43 870.83 193.43 884.7 138.61 884.7"/><polygon class="cls-1" points="278.23 884.7 244.97 835.15 237.41 821.77 237.41 884.7 220.71 884.7 220.71 795.3 235.61 795.3 267.97 843.01 276.04 856.99 276.04 795.3 292.73 795.3 292.73 884.7 278.23 884.7"/><polygon class="cls-1" points="501.65 884.7 468.4 835.15 460.83 821.77 460.83 884.7 444.15 884.7 444.15 795.3 459.04 795.3 491.41 843.01 499.47 856.98 499.47 795.3 516.17 795.3 516.17 884.7 501.65 884.7"/><polygon class="cls-1" points="1564.84 884.7 1531.57 835.15 1524.02 821.75 1524.02 884.7 1507.33 884.7 1507.33 795.3 1522.21 795.3 1554.58 843.01 1562.66 857 1562.66 795.3 1579.34 795.3 1579.34 884.7 1564.84 884.7"/><path class="cls-1" d="M83.29,888c-8.08,0-17-1.52-24.18-2.92V871.59c7.39,1.86,17.47,3.7,25.32,3.7,9.49,0,19.18-1.39,19.18-11.72,0-9.38-9.71-13.4-20-17.67-12.45-5.16-26.54-11-26.54-27.26,0-23,20.9-25.72,36.62-25.72a104.07,104.07,0,0,1,21.13,2.63v14.14a83.7,83.7,0,0,0-23.54-3.42c-9.17,0-18.54,1.28-18.54,10.79,0,7.53,8.42,11.14,18.17,15.32,13.66,5.86,29.12,12.48,29.12,31.18,0,17.34-10.65,24.41-36.76,24.41"/><path class="cls-1" d="M341.24,888c-8.11,0-17.07-1.52-24.18-2.92V871.59c7.39,1.86,17.46,3.7,25.31,3.7,9.48,0,19.17-1.39,19.17-11.72,0-9.38-9.71-13.4-20-17.67-12.45-5.16-26.54-11-26.54-27.26,0-23,20.92-25.72,36.65-25.72a104,104,0,0,1,21.13,2.63v14.14a83.88,83.88,0,0,0-23.56-3.42c-9.17,0-18.54,1.28-18.54,10.79,0,7.53,8.42,11.14,18.18,15.33,13.65,5.85,29.11,12.48,29.11,31.18,0,17.34-10.64,24.41-36.73,24.41"/><polygon class="cls-1" points="853.12 884.7 853.12 795.31 907.03 795.31 907.03 809.19 869.8 809.19 869.8 831.81 902.48 831.81 902.48 845.03 869.8 845.03 869.8 870.85 907.93 870.85 907.93 884.7 853.12 884.7"/><path class="cls-1" d="M583.22,886c-30.25,0-43.74-14-43.74-45.38,0-30.52,16.44-46.66,47.56-46.66a78.3,78.3,0,0,1,19.69,2.59v14.1a127.33,127.33,0,0,0-20.09-2.16c-15.52,0-29.44,2.41-29.44,31.47s14.69,31.63,28.46,31.63c1.39,0,3.21-.16,4.64-.3l3-.29V845.12l-13.54.65V832h28v51.38c-6.12,1.15-16.91,2.7-24.51,2.7"/></g></g></svg>